# xmcd CD database file
#
# Track frame offsets:
#	150
#	10263
#	21352
#	30863
#	44821
#	57901
#	72364
#	84724
#	96482
#	106264
#	115860
#	129858
#	140028
#	151181
#	166737
#	178583
#	189344
#	204449
#	220632
#	227179
#	236370
#	248135
#	264502
#	285123
#	297350
#	318701
#
# Disc length: 4501 seconds
#
# Revision: 0
# Processed by: cddbd v1.5.1PL2 Copyright (c) Steve Scherf et al.
# Submitted via: CDex 1.51
#
DISCID=6a11931a
DTITLE=Phyllida - Let Love In
DYEAR=2001
DGENRE=New Age
TTITLE0=Prayer Of Aruna
TTITLE1=Song For Susan
TTITLE2=I Hear Your Tears
TTITLE3=My Soul
TTITLE4=Let Love In
TTITLE5=One Child Hurts
TTITLE6=Fire And Wood
TTITLE7=Geh In Dein Herz
TTITLE8=Stay With Me
TTITLE9=I Will Cradle You
TTITLE10=The Best Of My Life
TTITLE11=I Will Never Forget You
TTITLE12=I Didn´t Know
TTITLE13=Memories
TTITLE14=My Beloved
TTITLE15=Song For Helga
TTITLE16=Dark Side Woman
TTITLE17=Gaelic Love Song
TTITLE18=Thanks To The Earth
TTITLE19=Snowdrops Under The Snow
TTITLE20=Be In The Moment
TTITLE21=Let Love Heal
TTITLE22=I Really Wanna Know
TTITLE23=Alanna
TTITLE24=Lay Your Burdens Down
TTITLE25=The Healing Song
EXTD=YEAR: 2001
EXTT0=
EXTT1=
EXTT2=
EXTT3=
EXTT4=
EXTT5=
EXTT6=
EXTT7=
EXTT8=
EXTT9=
EXTT10=
EXTT11=
EXTT12=
EXTT13=
EXTT14=
EXTT15=
EXTT16=
EXTT17=
EXTT18=
EXTT19=
EXTT20=
EXTT21=
EXTT22=
EXTT23=
EXTT24=
EXTT25=
PLAYORDER=
